<svg xmlns="http://www.w3.org/2000/svg" viewBox="0 0 509.6 117.06">
    <path d="M20.12,111.74c0,4.84-4.51,5.32-10.06,5.32h0C4.5,117.06,0,116.58,0,111.74V4.47C0-.38,4.5,0,10.06,0h0c5.55,0,10.06-.39,10.06,4.46Z"
          style="fill:#e2007a"/>
    <path d="M211.64,111.74c0,4.84-4.51,5.32-10.06,5.32h0c-5.56,0-10.06-.48-10.06-5.32V4.47C191.52-.38,196,0,201.58,0h0c5.55,0,10.06-.39,10.06,4.46Z"
          style="fill:#e2007a"/>
    <path d="M114.83,112.69c0,4-4.5,4.37-10,4.37h0c-5.56,0-10.06-.39-10.06-4.37V24.49c0-4,4.5-3.66,10.06-3.66h0c5.55,0,10-.32,10,3.66Z"
          style="fill:#e2007a"/>
    <path d="M77.79,112.58,43.21,65.18c3.31-4.41,28.23-37.57,30.56-41,2.5-3.68-4-3.54-4-3.54H55c-2.1,0-4.08,1.87-5.34,3.38a1.41,1.41,0,0,0-.41.4L22,64.61c-.8,1.17.07,2.14,1.7,4.44L53.53,115a2.41,2.41,0,0,0,.48.52c1.42,1.72,4.23,1.57,4.23,1.57H74.76a3.42,3.42,0,0,0,3.15-1.7A2.72,2.72,0,0,0,77.79,112.58ZM43.18,65.21"
          style="fill:#e2007a"/>
    <path d="M133.54,115.36a3.41,3.41,0,0,0,3.15,1.7h16.52s2.81.15,4.22-1.57a2,2,0,0,0,.48-.52l29.84-45.92c1.64-2.3,2.5-3.27,1.71-4.44L162.23,24.42a1.41,1.41,0,0,0-.41-.4c-1.26-1.51-3.24-3.38-5.34-3.38H141.7s-6.52-.14-4,3.54c2.33,3.43,27.25,36.59,30.56,41l-34.58,47.4A2.72,2.72,0,0,0,133.54,115.36Zm34.73-50.15"
          style="fill:#e2007a"/>
    <path d="M483,28.22c-3.78,0-19.37,2-19.25,15.52C464,63.66,509.6,66.8,509.6,88.55c0,22-20,27.25-30.52,27.25-13.5,0-28.09-6.55-28.09-6.55a3,3,0,0,1,0-2.36c.54-1.31,2.7-7.86,3.78-7.08s14.32,6.82,24.31,6.82,18.64-5.51,18.64-15.2c0-17.55-45.65-21-45.65-45.33,0-22.53,22.38-27,29.95-27,9.45,0,23.53,6.54,23.53,6.54s.28.22-.54,2.12c-.37.88-3,6.29-3.78,6S490.38,28.22,483,28.22Z"
          style="fill:#1a171b"/>
    <path d="M402.41,19.89c-13.86-.27-26,2.13-32.43,5.94-5.64-5.19-19-6.18-23.05-6.18-19.33,0-30.06,6.38-30.06,7.07,0,1.2,0,83.45,0,83.45.31,3.28,3,3.06,6.41,3.06s6.11.22,6.11-3l.07-78.27s5.16-2.26,18.2-2.26c14.24,0,21.47,9.66,21.21,17V94.2c0,9,0,15.74,0,15.74a2.51,2.51,0,0,0,1.45,2.62c1.18.65,3,.57,5,.57,3.14,0,5.73.19,6.06-2.43a3.55,3.55,0,0,0,.08-.76V78.24s.19-28,0-32.4a20.92,20.92,0,0,0-3.79-12.14,60.53,60.53,0,0,1,21.9-3.81C414.5,29.89,421,41,421,48.07c0,4.18-.1,62.25-.1,62.25,0,3.27,2.73,3.05,6.1,3.05s6.48.22,6.48-3.05V47.85S431.77,19.89,402.41,19.89Z"
          style="fill:#1a171b"/>
    <path d="M288.79,34.3s2.53,1,5-3.53.25-5.81.25-5.81a38.15,38.15,0,0,0-19.94-5.3c-12.11,0-38.1,9.85-38.1,48.21s23,47.45,37.09,47.45,23-5.56,23-5.56,2,.26,0-5-4.29-4.55-4.29-4.55-9.59,5-18.42,5-24.48-7.57-24.48-37.35,16.66-38.11,24-38.11S288.79,34.3,288.79,34.3Z"
          style="fill:#1a171b"/>
</svg>